<svg xmlns="http://www.w3.org/2000/svg" viewBox="0 223.2 4229.6 3625.4"><path fill="#C3C3C3" d="M3302 2359.3c-14.2-14.2-32.3-21.2-54.3-21.2h-151.1c-22 0-40.1 7.1-54.3 21.2-14.2 14.2-21.2 32.3-21.2 54.3v755.3c0 103.9-37 192.8-110.9 266.7-74 74-162.9 110.9-266.7 110.9H679.8c-103.9 0-192.8-37-266.7-110.9-74-74-110.9-162.9-110.9-266.7V1205.1c0-103.9 37-192.8 110.9-266.7S576 827.5 679.8 827.5h1661.6c22 0 40.1-7.1 54.3-21.2 14.2-14.2 21.2-32.3 21.2-54.3V600.9c0-22-7.1-40.1-21.2-54.3-14.2-14.2-32.3-21.2-54.3-21.2H679.8c-187.2 0-347.4 66.5-480.3 199.4S0 1017.9 0 1205.1v1963.7c0 187.2 66.5 347.4 199.4 480.3 133 133 293.1 199.4 480.3 199.4h1963.7c187.2 0 347.4-66.5 480.3-199.4 133-133 199.4-293.1 199.4-480.3v-755.3c.1-22-6.9-40.1-21.1-54.2zm882.7-2091.2c-29.9-29.9-65.3-44.8-106.2-44.8H2870.1c-40.9 0-76.3 14.9-106.2 44.8-29.9 29.9-44.9 65.3-44.9 106.2s14.9 76.3 44.8 106.2l415.4 415.4-1538.8 1538.9c-15.7 15.7-23.6 33.8-23.6 54.3s7.9 38.6 23.6 54.3l269.1 269.1c15.7 15.7 33.8 23.6 54.3 23.6s38.6-7.9 54.3-23.6L3557 1273.6l415.4 415.4c29.9 29.9 65.3 44.8 106.2 44.8 40.9 0 76.3-14.9 106.2-44.8s44.8-65.3 44.8-106.2V374.3c0-40.9-15-76.3-44.9-106.2z"/></svg>
