<?xml version="1.0" standalone="no"?>
<!DOCTYPE svg PUBLIC "-//W3C//DTD SVG 20010904//EN"
 "http://www.w3.org/TR/2001/REC-SVG-20010904/DTD/svg10.dtd">
<svg version="1.0" xmlns="http://www.w3.org/2000/svg"
 width="64.000000pt" height="64.000000pt" viewBox="0 0 64.000000 64.000000"
 preserveAspectRatio="xMidYMid meet">
<metadata>
Created by potrace 1.11, written by Peter Selinger 2001-2013
</metadata>
<g transform="translate(0.000000,64.000000) scale(0.100000,-0.100000)"
fill="#000000" stroke="none">
<path d="M263 513 l-28 -118 -65 -7 c-36 -4 -89 -10 -119 -13 l-53 -7 105 -58
104 -59 -18 -108 c-11 -59 -19 -115 -19 -125 0 -10 29 11 78 58 42 40 84 76
93 79 10 3 58 -19 115 -53 55 -33 100 -59 101 -58 2 2 -18 54 -43 117 l-46
114 81 76 c45 41 81 78 81 80 0 3 -30 2 -67 -3 -38 -4 -88 -10 -111 -12 l-44
-4 -51 109 c-29 59 -55 108 -59 108 -3 1 -19 -52 -35 -116z m101 -118 c18 -18
27 -19 24 -2 -3 14 31 18 48 5 9 -7 11 -30 5 -70 -2 -11 -54 2 -72 18 -20 18
-49 18 -49 1 0 -8 19 -20 41 -27 56 -19 89 -47 89 -76 0 -22 -30 -63 -47 -65
-5 0 -17 -2 -27 -4 -11 -2 -34 2 -53 10 -19 8 -35 10 -38 4 -4 -5 -17 -9 -29
-9 -18 0 -25 7 -28 28 -2 16 -2 34 0 40 5 17 57 15 72 -3 15 -18 63 -20 58 -2
-3 6 -26 19 -52 27 -52 17 -76 41 -76 76 0 49 98 85 134 49z"/>
</g>
</svg>
